<mxfile host="Electron" modified="2024-06-23T07:51:59.700Z" agent="Mozilla/5.0 (Windows NT 10.0; Win64; x64) AppleWebKit/537.36 (KHTML, like Gecko) draw.io/24.0.4 Chrome/120.0.6099.109 Electron/28.1.0 Safari/537.36" etag="iWZImZg4eUMuS7y02-Xu" version="24.0.4" type="device">
  <diagram name="Page-1" id="KjD7oOkq36MRz9HWE6mD">
    <mxGraphModel dx="1434" dy="836" grid="1" gridSize="10" guides="1" tooltips="1" connect="1" arrows="1" fold="1" page="1" pageScale="1" pageWidth="850" pageHeight="1100" math="0" shadow="0">
      <root>
        <mxCell id="0" />
        <mxCell id="1" parent="0" />
        <mxCell id="Npahc8-E40TIPT4REXQP-16" style="edgeStyle=orthogonalEdgeStyle;rounded=0;orthogonalLoop=1;jettySize=auto;html=1;strokeWidth=2;" edge="1" parent="1" source="Npahc8-E40TIPT4REXQP-1" target="Npahc8-E40TIPT4REXQP-15">
          <mxGeometry relative="1" as="geometry" />
        </mxCell>
        <mxCell id="Npahc8-E40TIPT4REXQP-1" value="" style="image;sketch=0;aspect=fixed;html=1;points=[];align=center;fontSize=12;image=img/lib/mscae/Azure_Pipelines.svg;" vertex="1" parent="1">
          <mxGeometry x="157.5" y="396" width="80" height="80" as="geometry" />
        </mxCell>
        <mxCell id="Npahc8-E40TIPT4REXQP-3" value="" style="shape=image;verticalLabelPosition=bottom;labelBackgroundColor=default;verticalAlign=top;aspect=fixed;imageAspect=0;image=data:image/png,iVBORw0KGgoAAAANSUhEUgAAAQAAAAEACAYAAABccqhmAAAAAXNSR0IArs4c6QAAAARnQU1BAACxjwv8YQUAAAAZdEVYdFNvZnR3YXJlAEFkb2JlIEltYWdlUmVhZHlxyWU8AAA5R0lEQVR4Xu2deVRUV7r27783cSiZq4CicMrQGUxiJ7EzND3cdVf37SRmMBrjAAoik0zOAxbOIzgLyiCIioDgLKiIs6JJjImzUZKYdNJJuun0vd23+35/vN9+DpuE4KbqVFFV51TVftb6rZUVq06ds/f7PGfvfXYV/ybln/qP5r8NHXzg2xaA/+b/W0pKypf1H83fDxpy5M9N0SWfU9iKqwr4b/w//Bt/mZSUlC/pP85/b4g52Zr/0LYvKSTvJkVZG+nhrDIF/Df+H/4Nr8Fr+dukpKS8Xb89/9eMJ2u/ag1bd5fCFzXTQ5O30SMZxT8B/w//htfgtXgPf7uUlJQ36rfn/hrzXP03LeEbW8i47EPqP33XfcbvDF6D1+I9eC+OwQ8nJSXlDfrtuVbLC43f1UWXfMaG9jeo7+wDQrPbAu/Be3EMHAvH5IeXkpLSo357ttXw8vE/Wx+v+SMFr/qEzPOOK3N8kcHVgPfiGDgWjolj4zP4x0lJSelFvz37l9indrN5/to7ZFryHj2Uzeb56czILgDHwjFxbHwGPot/rJSUlJb67Zm/xAze/3WTeVMLha24Qv2n1TDTFrkFHBufgc/CZ+Kz+WlISUl5Ur8582fDLw5/Uzpw6z0KWXmDouYeFZrWHeCz8Jn4bJwDOxe5PiAl5Skxw1kfrfyiNXTNHYqYf5oeytxCDzNjehJ8Jj4b54BzwTnx05OSknKHfnP6u6FP7/mqxbThLhkXv0f9p1QKzelJcA44F5wTzg3nyE9XSkrKFfrNqe8szx36uslS1EKhyz+m6Fn7hWbUEpwTzg3niHPFOfPTl5KScka/OfWt4eXGb/If2f45BeXfJvPcI5oM99WCc8M54lxxzjh3XAO/HCkpKbX6zclvMx6vwjz/EzItPEcDs7cyk232CnCuOGecO64B18IvS0pKypZ+ffKbmMF7/3jJtP4OhS25RP2mVtPDk5ixvBCcO64B14JrwrXxy5SSkuqoX5/4xvKL+q/q+pZ8SsErrlPU7ENCU3kjuBZcE64N14hr5ZctJeXf+vWJPxlePPK19WeVbJ6fd5sirU30UEap0EjeDK4J14ZrxLXimnHtvBmkpPxPvz7+p9gnqu+1hK6+TcZFF2hgFpvnC8zjS+Aaca24Zlw72oA3h5SUf4gV/aBn6r5osmy+S6HLPqK+0+uEZvFlcM24drQB2oK1iVwfkPJt/brpa8NLR74qHVCGef41MuccEZrDn0AboC3QJmgbtBFvLikp3xErbOsjFZ+1hq66TRG5J+mhdDbPT2MmkChtgTZB26CN0Fa82aSkvFu/OvZVzNO77rWY1n5CxoUXqN+UaqEJJJuVtkEboa3QZmg73oxSUt4lVryWXxz8simq8A4FL79G0TP2siLfJFEB2gpthrZDG6ItebNKSelbv2r8o+HF+i/zHy5voaCVt8g85zAb4pYIC13SNWgztB3aEG2JNkXb8maWktKfWIHGPrbjUzbPv0Wm+WdoYGa5sLgl6kEboi3RpmhbtDFvbikpfehXR7+Meab280sRG25T6NLLbC5bJSxmifOgTdG2aGO0NdqcN7+UlDZiRWgZsu9eXd8izPOvUtTMg/RwKitYidtAG6Ot0eZoe/QB7w4pKc8o5sgXhhcO3rM+srWlNWjlTYqc20gPTWLzfEHBSlwP2hptjrZHH6Av0Ce8e6Sk3CdWaEMf39HSYlxzi8IWNFP/rG2sKAslGoC2Rx+gL9AnrG/k+oCUexRz+N6gn9d91mQu+IRCllym6Km7hEUp8TzoC/QJ+gZ9hL7i3SYl1T2xYjK8eODz0v7Fdyho2VUyz24QFqG3MmNrEzXf+uMPfPHnv1G7rt/7jn4+pVT4Pj2CvkEfoa/QZ+g73o1SUo4rpuHzjIfL7rSG5N+kcOsJGpBRJiw8b2XM6n3c6l0LITB0SY3w/XoEfYS+Qp+h79CHvDulpNSJFU3MMzWY59+k0EXvUb/JO4XF5s3A1H/7x7+4zW0Lr/OmEADoM/Qd+hB9iT7l3SslJVZM/WeWIXs+bTJvvM2GklfIMn23sLi8naGL1Zu/XXj9b3K2C4+nZ9CH6Ev0KfoWfcy7W0qqTb+s/8zwi72fWh8q/YQCl9+gyFn1NDCtiB5OKfA5fj65RBnWO6ra8zeEx/MG0JfoU/Qt+hh9jT7n3S/lz/rloU9jH9/O5vl5Nyls/nkakL6FHmJF44s4a/7mW18Kj+dtoG/Rx+hr9Dn6npeBlL+JdX7MUzvvXgpfe4tCFn9IfbMrhUXjSxy93NLmaAekPAlgwSE6nreCvkafo+9RA6gFpSikfF+/PNhiebb2bml04S0KWsrmhjP2C4vE18AQ3lH5ovk7gr5HDaAWUBOoDV4mUr6oX+y5a3249DYb7t+g8LlNytxQVBi+Rtmxj7il1UtZ+V9cLTyeL4EaQC2gJlAbqBEWBHJ9wJf0ywMtQ5/c/kmLcdUNNgc8R/0yK4TF4ItML2/illYvfzF/R1ATqA3UCGoFNcPLR8pb9fKBu4MGV91pMq+/SSGLLlH0ZFbUyazD/QRnzA+Nzt8rPJ4/gBpBraBmUDuoIV5OUt6il/ffNQzZfSe/3yY2z1/yMUXOPEQDUzezDt7oNwxdVM3t7Jimlx8THs+fQK2gZlA7qCHUEmqKl5eUnvXy/jsZj25h8/yV18loPUUDJpUKO9mXgfkd3egDSfP/FNQOagi1hJpCbfEyk9KbXt53J+bpytstYfk3KHTBReqbtUPYqb7Oz7NLnDJ/7bkbwuNJNiq1hJpCbaHGUGu87KS01sv7PrE8W/NJnXndDWXIZplaJ+xEfwDmd2qXnzS/KlBbqDHUGmoOtcfLUMrTennvJ4Yhtbetj5TepMBl1yhi9mG/m+d3BkZ2VAgM0bEkYlBjqDXUHGoPNYha5GUp5Qm9tPd27OPlt1qDV16jsHlnaUAam+cnsQ7yY36eVcItrV7KRh/2PtHxJLZBzaH2UIOoRdQkL08pd+mlPbdjnqy42WRafZ2CF31AfTPZPF/QOf5ISkE9t7U6ffHd36T5XQBqELWImkRtokZ5uUq5Si/tuWUYvPNWad+CGxS4+COKnHFQ2Bn+zNr9F7m17etv//gnDV1YJTyOxDlQk6hN1ChqldWsXB9whVhDWgcW3WjFX5A1zTlGA1M2sQbfIOlE860v29xtRz+aX3wcifOgNlGjqFXULGqXl7GUo3pp982hT5TfbAnNu06huWepX3q5sNElbcDYajS9rFH4fonrQK2iZlG7qGHUMi9rKXt6qe6m5entN5oi17J5/sIPKGpKrbCRJT/y69lbub3tC68VHUPielC7qGHUMmoatc3LXKqzXqq7YXi++kb+gE3XKWDpNWVONTCZDfcnssaU2AR3dTXCKEH0fon7QA2jllHTqG3UOGqdl70U9GLtjYxHiq+34k8+hc09Qf1TS4SNKRGzpfEyt7htHfnwrvD9EveDmkZto8ZR66h5Xv7+qxdrr8c8WX79UujKqxQyr5miM7bTQNZYEsdovqluAXDt/gvC92vJ4MwiunbvW6o9e0P4774Gahy1jppH7cMD3A7+oxd3XbcM3nG9LmrdNQpcdJkip+5hjbNe4iRqNSpvt/D9WoJRSbvw3wgE0et8DdQ8ah8egBfgCW4P39WLu64Znqu8Zn1o8zUKWHKVwmc20IDkQmEDSdTx2oKd3D72pTdz1Z69zs/sR2E04C8hgNqHB+AFeALegEe4XXxLL9Zci320+FpL8LKrFGo9w+ZExcJGkTjGwqpT3Dq2hZ1/ovdrha11C4SA6D2+CrwAT8Ab8Ai8wm3j/WIXM+iJLdeaIldfpeAF75Mla6ewESTOIbqLioTXid6vBdNUPLUQvc/XgTfgEXgFnmHe8d71gReqrxqer7xW2nf9VWWuEzH9gPCiJd0Dd0s1wkhB9H5Po8b8kOi9/gK8As/AO/AQvMRt5R1iJ2wdUHClNXjpFTLNOkoDktg8P5FdnMTlqNWolbuF7/ckjqxXiN7vT8Az8A48BC/BU9xe+tULVVdiHiu52hK64gqFzj1N0enbhBcncQ2jVtZxu9iX6P2eBOb/XuV2ZWhw5mbhcfwNeAhegqfgLXiM200/YidlGVxxpSli1RUKXPghRWXXsJNfJ3Eza/dd4HaxLWVRTfB+TwEzO2J+COEmOpa/Ak/BW/AYvAbPcftpL3Yy1oDFVyh4/nvUP6VIeAES19PxGbotbWn8UPh+TwDzq12n6CgZAPcDb8Fj8Bo8x+2nvV7Y+bESANjhJEcAngOP9tRo2pajwve7G2fNr/WIRY+0jwBCFn7QFgDMc9x+2qs9APpl7STzjIMUtOASXwOoEF6MpPvAXGr12oJK4THcjdpHlB0F87fN/8XH9DfgIXgpCE/SrKfJMqdRfwHwi8qPrAGLPqa+LADaMc0+piSWaeYRGjCxgAZOYBckcRmjVqhfAGy++QUNzmCmEhzHXThjfoxoPH2eegWegXcCF35ExnnnmfGP/gC8Bs9x+2kvUQCAaDZsCZt7igLZiCBi6n7hhUqcQ+0CYLuufc7urB4yl6PnBn3/93/Sa/PZSEVwPH8DXoFnQudfoKicxp+YX58BsONyWwBkMuMLMLMLCsltpuB5F8mSITvZFUwrPcqto164w7rbZM6clzR/G/AGPBKC3YBzT5JlNjO8ACUAmOe4/bSXvQBoJ2JGgzItCM05Rf2Ti4SNIFHHr2aUcfs4JneaLXnDAf4pjgnvEx3PX4AX4AkM98OtZ4Sm74j+AmD7hzwAKu0SnVWtrA/g9eHTD7G5zkbWCGslTuDMPBtCCLSZTnxcRxmcsUm58+O4jgrvEx3TH0DtwwPwgjH3PEXNYcN9geE7owQA8xy3n/ZyJADasUzeRaFzzypzncjJdcIGknSNM0PtzuqO+dpNf+TSHX40x7V2X7Pw2P4Aah61HzL/PTLPaRIavSv0FwDbLrEA+EhodHuYp+6joPnvU4j1LEWnbaWBCayBJDZ5ZU45t1D3tbDypPAzRAxO777p21V75rrwM3wd1DhqPWghu/HNPcEMfcRh4DV4jttPew1hJ9PHyQBoJ3zmYQpgjRLKpgf9kjbTANZYkvt5OmUj3fvmr9xGrtEuZkbRZ4GY6WW0gIUEniK4SrY+z1dBTaO2AxZeJqMyzxebWw3wGjzH7ae9hlR8YO2zkAVABjNzN4jOrKaw2ccJxwqfso/6J24UNqbfMn41nb/+ObeRawVTPsPu8Pgcd5i+XThm++f4A6hh1DJqOkyZ52MYLza2WnAseI7bT3u5KgDaiZq8m4Kt5yko9wKZWSiIGtYfKa1/n9vIPYI53WH6dvmb+VG7qGHs34/MwTxfbGhH0V8AbH2fB8AOlxI5bT8FznufQuacpOiUEtaoa/yWiavU7/y784X7TOys8ITgmfRC4bX5GqhV1CwW+cJzTpJlFjOuC1ECgHmO2097uSsA2jHNaqQA1pjGGYfZkGqDsNF9mVes2+j7//lfbiXbSl1aSb+ftI7mbz5A/+PgV3DdJZj/1XnbhdfmS6A2UaMBCzDPPyc0ryvQXwCUuzcAgCW7hkJZqgbM/4DNqfYKO8AXeTptI11t+YpbybbyKo4q5m8HYaB1CPiL+VGTqM3Q3GYyzz4mNK6rUAKAeY7bT3s9X/6e2wOgHTNraMyrgCWtXNgZvkTNcZV/9af5+k/M386waZs1CYEvvvuethy9RDHTtwivy1dADSr1yMwfkXNCaFhXA6/Bc9x+2uv5MhYAC1gApDOTeoiIaYdY4l6ikNknqd/ETTQgnnWIjzF/q7of0MScH0YXBQD46PYX/JXulWL6I5fo1Vx2xxdcjy+BmkPtBcy/TKac00Kjugt4DZ7j9tNez5ddZAFwWWhUdxKdUUWmmUdZg7BOmHqA+k/YIOwsb+TdJVXcVraFu3uctUxofIB/c6f8yfQANYZaQ80ZrWcpCivzsw57FHw2PMftp72e36JNALRjyaqh4LnnKGDe+2RmoSDqOG/i6eQNqhf9pq2pExq/ncJd6v5wiCPyN9O3g9pCjeEbe+ZZjWSZyQypAUoAMM9x+2mv57dc4AGwXVPMk/dQYO57FJxzhiypZazTVnsf41bRtU//xK1mW9sOXRCaviNf/1ndz4bZ009NLzhvHwa1hJoKxDx/znGhKT1JWwBc0FEAlOojANoJn97QtiI7s5HN1QqFnapXSg6q+zGNsx/dFRq+IxgddEfXPv+GFlSeoJhppcJz9XVQO6ihgPkfkhHzfIEZtUAJAOY5bj/t9Xxps64CAERn7KTQ2SeUIVs4Gxn0n7Be2Ml6YurmQ9x6toW7uq1Fv3bwZMCWMM1ovvHTBUJ/Nz1AraBmUDuh1vMUhcU3gRG1oi0AmvUTAM+VsACYf5miYTydYc6uZcO3sxQ0t5mi0rYp++n1yCtztqqa92PRr32zjy0QEPZUc+LjHz5/1LJdPzkffwU1gloJzr1IEbOPURQznN6A1+A5bj/t9VzJeRYAHwoNqBcipuyjQNapIbOOU3RSsbDzteLplA2qv+HXebNPV6hZ/Ht3cZXwfPwR1ARqA1vPw9k8P2pmg26B1+A5bj/t9VwxD4BJzGw6xpK+k4wzjihDO+O0euqfwKYFgmLwKHGr6PDFW9yStrX7+IdCs4uwt/iHwBGej5+BGkAtBMy7RGE5Z8iMu+wMZjQdowQA8xy3n/Z6rvgcD4BtXkFUZhWFzD5FAbnvUUSmtkPf1bVnuCVtC5t9REYXoWbxb37FMeH5+BPoe9RAsLWZImceFZpNj7QFwDkdBUCRdwVAO5HZu9l877yCJaVMWCTuZOTCSm5H28K8X82iXzv2Fv8gTDtE5+QPoK+VfscNYHaT0GR6RgkA5jluP+31XNFZrwyAdsKnHlCmBZgD9kssYEWyyu3ETCly2Wafjqhf/BOfly+DvkUfY7hvmnNSaC5voC0AzuonAJ7dfNZq8OIAAJb0SuWZL64jnI0M+sevUzbluINnUtV/ww+LeSKjd4Wqxb9FO4Xn5augL8NZn6Jv8UO03jDPtwWuA57j9tNez24+wwLgktBY3gbWB4JyzlCf3IsUOalSWFDdBXdgNVKz2aczqhb/4vKF5+WLoA/Rl0G5mOcfYQaq93rgNXiO2097PbuJBQAbVkWnMRP5CJFZuylg7gUKmn2KLMlbhMXlDFMK1P3xDHvf8BOhavGv/KjwvHwN9Bn6Dot84bOOUdR0Zh4fAV6D57j9tNezm077XAC0Y5x+mN1B3qOwqYeo74QCYbGp5Q+z1H0zT+1mn86oWvxLct/URg+gj9BXfXI/oLA5p4UG8nbaAuC0jgKg0HcDAFjYMDJkZhP1sV6kcDYyEBWePWA8tZt98HNeIoPbQtXi3/HLwnPzFdA36KOQHDbPx3xZYB5fQAkA5jluP+31bOEpHgAVPo05s4aC2F0lMOccmVO3sqLDXFoFcXl0/pq6n/N2ZLNPR9Qt/mFNQ3B+Xg76An0SZG2mCDzPF5jGl2gLgFP6CYCfF/hHALQTPmW/sj4QzEYFlombqT8rQluUHLrILWhb+OUekbnVoGbxrz8LItH5eStoe/QB5vnG2SeEZvFF4DV4jttPe/lbAADLpB3K+gCu2zh5H/WLXyssUrU/5+3oZp+OqF38E52fN4K2Rpuj7THP9+Xhvgj9BcDGk1ZDLguAVGYOPyMqfSe7C52kPnMvUnh6NbvLsiLlqP2GH+TMol87ahb/nprIAqrDuXkraGO0dXDOeYqcceQnxvAX4DV4jttPe/lzALQTmVlHgXPOKUQlldJTSeud/jlvR1C1+Nd0WWgmbwJtqrQvgnambz3WcxT9BcCGEywAPhAaw98wTTmorETvPHWT28+2uvo5b7WoWfwbuahSaCpvoG/CRgqZdpi16fsUNovN86cd8nvgNXiO2097yQD4KbnbT3Pr2ZYzm306Y+/PgCmLf7F5QnPpmX7j15KJjapQV6GY5+PuJzCDP6K/AFh/nAfAVr9nxEp1O/3s/Zy3GrBuYE/K4h9W/72IyLTtbJ5/QfnGXuT0w0IT+DNKADDPcftpr8E8ACzMAP7ME5kV9P0//sWtZ1vObPbpjLrFvzVCk+mRqKQSCp5xjALYFMrE5vlmVuyS+4HX4DluP+01eF2T1WD18wBI3kJXP1P3V3nV/Jy3PTB1wCjClpTFPwz/dU6/cWsobPJBdtd/n0JnnxIWveRH4DV4jttPe8kA2ErF9Ze47WzLmW/4icCTA3uauGq30HB6wpRRS31yLlDwnDNsuF8vLHjJT9FfAKw9xgLgfbKkMDP4Idklx7nlbEvtz3mrQdXi39iVQtPpAXNyOQXOPkNBOecofMZRMk89KFEJvAbPcftpL38OgN/Nr3Ppz3mrQc3i3+pdp4XG05q+8RsoeHojG+6/R8aZTcICl9hGfwGwppEHQLlf8UTWNrra8jW3nG11Z7NPZ9Qs/v0ye7PQgFqBeb4xa49SvKGzTlIkhrOC4pbYRwkA5jluP+31DDuZ3v4WAEml1PD+HW432+ruZp+OqFn8O3zxptCEWhE+qYoMOc0UNOcsRUxrEBa1RD3wGjzH7ae9nll91O8CIH+Pum/4OfJz3mpQtfiXV9s2/9eYqMRiCpx5Qnmmb5LzfJehBADzHLef9vK3ABi+bC+3mm115xt+XWF38e/rv1D/MSuEhvQU0ePXU8jUBjKweX7ozOPCIpY4j/4CYNURa2/W2ZZkZhAf58VZ1W75OW81qFr8qzktNKUn6Be3mkzpuwi1EIJ5Pgp2ygGJi0H7wnPcftrLbwJgYqnqRT9Hf85bDaoW/zIKheZ0NxEp2yhg1mkKZPP8cMzzBYUrcQ36C4D8w34RANWn7BsQctVmn46oWfxraL4hNKc7sSQUUtC0o9Qnp5mM09k8X1CwEteiBADzHLef9nraDwIgu6iR28y2XPENPxFqFv8S82qpHzOlJ+jLhvuh2fvJkHORzfNPCAtV4h7gNXiO2097PZ3n2wHwO2sNt5htuXKzT2fULP71G7NCaFZXY2TzfMOc8xQ86xRFTK0XFqnEfSgBwDzH7ae9ns5r4AFQ5nM8kV5O9775ntvMtlzxDT8Rahb/ltbfVubg5sQiZlIEgevBsfEZAcz8pulHhMUpcT9tAdCgowBYyQIghwVAEjONL5FYSudufMktZlvO/py3GtQs/r04vZJMmXvYnbmZgqYepehx69pGBC4Ax8IxDXMuUtj0Y8KilHgOeA2e4/bTXk+vrPfJAMivbeb2sq3u/Jy3PVQt/l249cM5RyVXUNjkQ0qRhGXspr6xq4SmVgPei2PgWJjny8d6+qAtAOp1FAArfC8AEtY1cHvZljs2+3REzeIfzrXz+ZtTt1PgjBNkmH2eIlgoiAxuC7wH7w2cfZYiprB5/mRWfBJdoAQA8xy3n/Z6esUhFgAX7ytCb+X383d75Oe81YDRhS1h8Q9TFdF1gIhJNdRn1lkKnN5E5glFQrN3BK/Ba/tgnj/tMCu4/RKdAa/Bc9x+2uup5b4TAE9k7dDkG34i8JuB9pS/W127G7P2ta3cs+mBaH0A/w//ZphzgULZPD+SFZpEn8Br8By3n/Z6avlBHgBbvJ7qE1e4tWzLld/w6wosLNrTi9N3CK9DRFTyVgqeeoQN7c+RcVI1m+PnK+C/8f+CZp5kw/0DwqKT6Ie2ADioowBYxgJgDguAiazQvJjcipPcVrblrs0+nVG1+Ce4DntEplayYf5xCphxSiFw1hkyTa0XFptEf8Br8By3n/Z6atkBrw+A382t5rayLZiyuz/nrQY1i3/ZpSeE12KP9gBAnwEZAN5FWwAc0FEALPXuAHhiUplHf85bDfYW/7BIaZlQIryerohKYlOAKWwKMItNAdKqKSy9jkIm11NY9kFlxV+ZAkxmU4BsVmgS3aIEAPMct5/2emrpfhYAF4RFp3uYiTz5c95qULP4V3zkY/H1dIExc69i8uDsQxQdt5b6jV7eFgLZB5R/N6dso6Cpjew1zRQ6rZEV2j6JToHX4DluP+01aMl+ay92UlGskLyN4obL3FK25Y5v+HWFmsW/F6btEF5PZ8KZyQ0zz1DAtGNkTtisGL8dBEAoC4DOr+8z42TbQuHUBmEBSrQFXoPnuP2016Al+3gAlHoV2cXHuJ2kvFVXv/yezn3yHeU13KSsyg9pyELfH720BcA+HQXAYu8LgN/l1qje7CPlXbr3l39Q1cV7FF96UWggb0cJAOY5bj/tNWjxXq8KgMcztqre7CPl3fr+H/9HRSfv+tTIoC0A9uooABaxAJjNAiCRGUzvJBRTw3uf8PKQ8ifVf/wVvb3hLEVmMSN5MfAaPMftp70GLdrDAqBZbDidkV93gZeDlL+q6sLnNGTBUWamvV4JvAbPcftpr0EL9R8Aj2duo4YPP+MlIOXvwtQAC4cig+kdJQCY57j9tNeTOg+A3y3YQ1fv/Zl3vZTUj8JTBG8bDcBr8By3n/Z6csFu3QYAzK92l5+UfwqjgfiSC0Kz6RElAJjnuP20l14DoDvm/6b1v+nSzc9p36mPaHt9M63e0fgTdjV+oPwbXoPXOqO//++/aG7hPorLLfMZ1Gxisie0ywc3PleOVbT7NC0taxCCf8Nr8Fq8p7vylimB/gJgfp211ywWABNKdMPv8KMeDpr/n//3/+j8x3epdO+Z+wxvD7wH78UxHJEvhcDpD51/uvItC1GYuTttgfdur79An33l/HQPC4Qi0+kJeA2e4/bTXnoLgMczKlTv74fajS8ytjM4GgQo2JSlO4RF7S04a368D3dz0TG7A8LA2XPSewjoLwDm1eoqABrev8u70r7ufPENFew6ITRyd8AxcWy1wjBWVMjegDNGu/Hp1zRl9S7h8VwJPsOZ81NCIHOPLlECgHmO2097PaGjAMguOc670L5OfHBLaF5Xgs9QqzWVx4RFrGccnfNjqO+OO7498Jn4bEeUV39DaECtgdfgOW4/7fVE7i4WAOeFhvQkj08qp+//rm7ef/j8NaFh3QE+S42wHuBNUwEswjkijHK0vD58ttq+aFd8cbPQhFoCr8Fz3H7aSy8BUH32Nu822/Kk+dtRW3h4nah49QaG1o6svGNxTnQcLXAkuPCIcMj8I0IjaoX+AsBaY+01kwVAQrFmvDBlG+8y2/LEsL8r1E4HPDE37i5qV9oREnqc2mCRUG2AXf3ir0IjagW8Bs9x+2kvPQRA9Rn75sKinMiYnkTNwiAWrURFqxfUzvv1/ojTkRDQ03qA/gJgbrWmAfB4Wpnd7/bjsZw7VvsdBedg7xEhilKvawGODP29YVETIaBGylRgHpsKZDATaowSAMxz3H7a63EeAGZmRi3I2mz/b/e78jl/d8G52BPmqaKC1Rq1j9T0NOe3h9o1garmzymCGVBr4DV4jttPez2eU8UC4JzQnJ7A3vf7cccVGVFL7I0C9LgvAI/S1EjvUxgRaoPtP5ccZSbcrSnwGjzH7ae9NA2AcYW8a7qWM3d/bO1Vs5sPr3Fm67CaUYCoULUEoWRPeNbuzPTFmc06XcmZAMI5q9knUNX8mdCUnkR/ATBnJw+AIo/z9pI9vGu6ljMGdWQXnzOLizgne9Jiw0xXYO6vRs6cs9qRhSNy53k8P++w0JieQgkA5jluP+2lZQDk1dn+G/74pp7IgLbAN/0cFd4jOpYt7H2LEKvtokLVAjX7GLC9V/Reezi6Q0+NcEzRZ9lDzUik6PgnQmN6Cv0FwOxKa68ZLADimSk9jL19//i6rsh8tnDm673OBA3OzZb0tA6gZuXfmf0Ljm4ldkTOBKiakQ6eCESkMzNqBLwGz3H7aS8tA+Dcx5/ybhEL39kXma8rHNm731mObjLCudmSs3dUV4PHefbk7Ly7c7BgTcWZx7Wix6vOPk5VMwoYX9QsNKcn0F0APDar0tpTowCw9/zfkaG5mmf0tuRo8eKHRmwJBSwqUE+jxhDOzLlFx+3ONm3RNMWZYFKzN0BZDBSY0xPAa/Act5/2emzWDhYAZ4UGdTf2JCqUrrA3JFcjR6cc9iQqUE9jb47uzHxbZDJnplGdEU3fnNmNaG+r870//52ZsU4T4DV4jttPez02U6MAiCvg3dG1REUiQs2qvFo58tTBnkTF6UnUzImdmWtjetNZziykdka0gOvMVAobmezp+dwGoUHdjRIAzHPcftrrsZnbZQB0kC8FgJpdco7eYUXHdOX3NESPcB3dWalmGpC57X2hQd1NWwBs11EAzGABMJ0FwHhmSg9jT6IC6Qo5Bbgfe6v0jq5TdLXhxpHQtIcozPGZji4I2nvyoTwOFBjU3cBr8By3n/Z6bMY2HgCbPY69RUDRL/p2hacXAe3tN9DDIqBoqN5Rjj6qFAWKO76nIdpp6ehUxd7Ox7O3vxUa1N20BcA2/QTAz6ZrFwDnPrK9D0A+Buwe9hbDHDGV6JuECHBHQlMtOGbnmwM+25G9CvZGP8pC4CRmSg8Dr8Fz3H7a62fTKzQLALkRyL3YkyNza1c/9rNHdx8Lqtn/EDGp1uO0BUCFjgJgmnYBkFcrtwK7E3tS+/xftM/+iz+1CtvFleAzOqs759xZIoO6GyUAmOe4/bTXz6ZtZQFwRmhQd/P24t28K7qWMwtM8stAbdiT2nMUTSVc8djPHqIwx7mIzrEz+g2AMywAtuooAKayAJjGAmAcM6WnGbuRd0XXkl8Hdg41ewDUPAIUGena3T8K28Ud4LM6S01wqQqA1GqhSd0JvAbPcftpr59NLecBsEkTGppv8u4QCyYVFYaW2AsXPcz/ZQDoOQDK9RMAj05pC4BIZkYtyCo4zLuja7njUZOzqLn7O7pxxV3YkxojAV+dAoSn1XoceA2e4/bTXo9OKdM0AH6WXCJ/FNRN2JPaABCZyRcWAUUGdTdtAVCmowCYrG0AgKoTV3mXdC1Xbjd1FjWLi858g81d2JMjv/zrbY8B1WyDFhnU3SgBwDzH7ae9Hp28hQXAaaExPUF4QikNyrE/DYAc3azjStRuMnJks4q7sfdNQH/eCHTli78yQ+7yOPAaPMftp70ezWYBMNXzARAxvpiCU+sInx0ysZKK953jXWNb7rzrdIXobiQSXicqRq3w563A9q79zO3vyDQJd2WxUd0F6h2e4/bTXo9ml/IAKPQYock7qdeUExQwaT9FjVxB0W8voCfGLrO7FtAuT4aAWvPrae7fjr1zxzmL3tcVvvRloMUNLawGT1FIxkGhUd1FWwCU6igAsngAxDFzuhljYgUZso4qRIxZpxi/IxOWVvLusS9PTAcc+W6BXlb+O6JmHuyvXwfOKmoi44QK6p3dRIbJxyksfR+FpzKTuhklAJjnuP201yNZJdYebg6A8PgS5W7fizV0KGv0zsbvSEPzdd5F9oVicdccVM2CX7v08NxfhJq9AM78FSDR8NoVjwVFj/2c+VKVvfk/NGTK9h/qU5mKYkSadYSMabuFxnUV8Bo8x+2nvR7JdG8AtDduUHINWUYsEZq+I0/GLqerd7/i3WRfeCznynkojmXvUV9H4bm03ob+HbG3EKj2uXpHRHdYZ7630RnR9yscHaEAe9d879u/3VenEeOKlJtUTzYtCMpsEJrXFSgBwDzH7ae93BUAYRO3Uy82vOrDGjVy1Cqh2bvi91M2qV4PaFd7EDgzH8V7HDU+hHmmMwXqSUSP7zrLmWtw9WNB0XqFM49U1Tz/rzp9U1izwJRQRgYWAFijCknfLzRxd9BfAGQUswA4JWwMZ2hvwN4YTsUVUfQwZmon+H12ocMh0C7cSfB1XXxnXzQ0xQ+N4N/wGnvf6utK3mB+IH8W/H7Fr2kQ1m5HQpN2shvYMTJMPkZhk/Yw89a4BHgNnuP2016uCgAMoQLT9igXiHm+ZTgb7guM7QjdCQF3ylvM305no4rkzP4FNXNtZ+XoYz+gZs3j+7//S1i/IlDTwam1Sk0HZjWQCSv5AlM7gv4CIL3I2oPNeyJj2UU7SUhSNfWcfJwCU+rI/M4KoZmd5feTNzm0JuBuYc7sTeYHah5lOjMKAPbm284IxxR9lj3sPfuHig5/JKxhW4SPL6E+6Qep55STFITHhgJjqwVeg+e4/bTXw90IAGNCBfXKYsOk9EMUPnodWZhh3cETY5c79HTAXcJqv54X/LpCzZ0RUrvPviNq5tyOyp3nMWTydmEtqwH13jvzSNvTrEl7hQa3B7wGz3H7aa+HJ23mAVCgGiURJ7FEzG6i0PGlzKTzPUL22t2aTwkwAkAQYIiK+bW3jAbUzI2d2XAD1BxbrZxdj1AzEql/v0VYz47SPuLtk3WUjGl1FJ7CzK0SJQCY57j9tJcjARARt5mCU9iciL0+OHEHRQ1fLDSqO8GOweom9809nZXeg0HtHdLZqYCWoN3V6D9zqoV17QzwQmDqbsULQRn1ZMIqv8DwndFfAKRtYgFwUniRHQmdWNmWemn72Dx/udCcnuTF5DUsCC7rcpGwo/QUDGrv1Hrc1dgVav4KEFR16oawrrtL+PhiMrAA6Dn5BAXjsWFKtU3gNXiO20972QsAY8JW5QJ7Zx4m09iNQjNqyROxyyl73R5qaL7Bu9o7hGCAIREMuDs7swrvKPgMNU8EIG+Y2qjZ6gxh5X/I5G3C+nYVYYnbqFdWIxmyj1IoHhsKzA/0FwCphdYek1kAjGUX0gEMcQJS91LPrGMUEr+VLG8xw+meeTQip4xWVZ2ghgs36NzHLbofIXQWVrLdGQw4rhrp/VEnzk1tmOXVvXdffbuL4ORdytpYQGYDmxZg2N8pAJjX4DluP+0lCoD2iwiaWEVRb7N5vtBs3sPjo5fScBYMuSUNVLz3nN8HA0YfaqTXEMCdX635r3723U9q2xNExPKbZ/YJCso4pO8AeCilgAfARgqbwIYxmY3Uh518+Kg1zDzzfJc359GLE1fT8DlbKH/ncao+dsnuXyrSozoHg5pVfEemApCe1gTUzvkhZeifXaHUthYY48uVR+TYEh+StpdMyW0BAM9x+2mv9gDAiWK4b4zdJDaMv/BmrtcHA8yNYMAGIBhGFAxqtgh3FI6l5R4IfLba1f52xa+uFxrT04Qm7lBG1PgavP4CIHmjEgC9Mw6TecQysSkkPhkMjhoKz9oRJiKDuhN8pqM7DvPqLgrNqBXh44qU0bUSAMxz3H7ai52MpV9qSVNglhwBOAUPhoQlOyi/sknZsXj1zv2/Ze9LwpTDU08tEFiOSnnkJzChVrSPAOAxeA2e4/bTj9hJxUSmbW/pzYYpfrEG4G7eyFW+zJSw2HeDAUHgjkVC3PFxbGekJ/MrawCTDhE8BW/BY9xu+tVDSRusxkm7WrHHPyhxJ0UNW6QsmElchA8GA54qYErRnTDAe7GQ6ehQv6P0Yv4INooOSN2jfE8GXoKnuL28Q+yEDf2TN5WGpO+hnmzeEjK+TFzMEtfxhpUFQ0FbMOxgwXD+Ot37+i+8tL1HWGdo3/mIpwe4m4vAv+E1eK0jTyS6kl7m/EFJNW17Z5h3olNKSuElbivv08CJ6wdFplY0BWQcpF7pDWQcvZ4Va67Eg0S9bqURc7ZQ9po6JRiwh8Ebg8Fd+v7v/6Txqw5RxJgNmhKasJV6ZhwleAWeYd7R/3BfrdjFxJpSK1uQbIaUPRQ5fKmwWCWeI2x0Ab26sokyCw5TXvUZOnvtnt8Fw5XPvqXns7YKDekpTHGbqTe+Gcu8AY/AK9w2vqWBiesN/ZI2WY1p1fQgdjglbKOoYQuFxSlxP5iWYbh5X1GOXE3DFtb6dDDgro8h/33X7kHCxxZSQHKt4gV4At6AR7hdfFcDE9dZopOK6gLT91GPzEYKjSsWFqjEvXQZAF3waPxGGrZgF83depKKDrxHZ6985nXboSEs9Gl91w9O3Ek92B0fHoAX4AluD//RwAnrYszJZZd6ZR6h3mkHKJzdebDCLfEMbQFQLSxQR/CWYIDx/3N2lfAaPEUYa/Ne6fWEmkftwwPcDv6rgRPWZhhTK1t7ZjVSwMQainx7qbBgJa4leBwLgIndD4CuUIJhvrbBgKF+Uf1l7ef5sZvJkLqPzfMbCbWOmuflLwUNSFhr6DuhID8ktYYezDquFKf5rYUUxQpV4h5+CIDRrEg9iBIM86pobvlxqjp+hc5+3MLt6hrhj3ZUnbxO41cdFH6+JwkfU6C0Maa6wWl1hBpHrfOyl+qsAQlrLFETS5oC0g9Qr0n1FDamUFi8ku7zYwCs155Ra2lIeillFh6hvF3n6ez1L5UVenuC2fFa3OUzNzXS85nl4uNrQEjCNuqZfoRQy6hpVtuDeJlL2dOA+DVDI5LKW3plHCZD8m4KH7FSWMQS5wket0U/AeBDGOOKlTUt1C5qGLXMy1rKUQ2IX20NTalqxW7CwAmVbFqwgBWvVeICZAC4Fgz3+7CbFWoVNdt3go6+sefNGjB+tcEyYVOp8hdWMo4qhSsqaIljtAVAlbCYJY4RPGFH2zyf1ShqldWs/z3Wc7cGjF8VEzFxS5Mh/SD1mnSITCNXCQtbog4lABJlAHSHMNaGPdPZNJXVZGRiySXUKC9XKXdpwLhVsaaJ5a3YN21IqqPIYUuU/e4SxwiO4wEwihWzxCFMYzdR79QDyt591CJqkpenlCfUf1y+ITp+vTUsaQc9mNlEQeO3kvnNBcJCl4iRAeA44aMLlDZDzYUkVxFqELXIy1LK0+ofl2+Jit9Yhz820iP9iPIFF1GxS+4nOK5UBoADhMRvU9agUGuW+I1NqD1ehlJaq39cXkxkQlELvnLcO2Ufmd7JZ0U+V2KDHwNgncQGYaydeqUdUr7OjhpDrbVVnZTu1D82LyNsYoWyPtAnsZoihy0WFr9EBoA9TGMLqU9SnTLPD02qbEVt8TKT0rP6x640RI9bmx+UXKNMC1Do5jfnC03gzygBMEEGgAi0S4/0o4Qa6jtuTSlqipeXlLeo/9iVgyLHFzbhB0p7pR4i48i1FDWUFb9EITi2lAIn7BQawF8JHVdGPSc1KD9qi9pBDfFykvJW9Ru7YqgpoaQF3y0wTKyl8LeXCw3hb7QHQDgrfH8nbGwR9U7Zr3z/xDihrIXVjHys52uyxK6xhkzc0YovaATGbyfzG2xaIDCGv/BDALzLTOCnmEZtpIDEGnow4xihNlAj/caskMN9XxXrXIs5bkNpYHIt9Zh0mELGbBKawx8Iji3x6wAIYjcBrBGhFqLi1tehNniZSPm6+o1eHhMxfvMlQyob9qUeJNOIPGaKHL/ixwBY61eEsuvumdZA6HvUAGqBl4WUv4l1fqwxvlSZFmB9IPKtRUKz+CL+FgDGMQVkSNqjfEc/LKG8FX3Py0DKn9Vv1DKDZexqa3DiDmUuCGOYX59HUa8xo/gw/hIAplEblOtU+pb1sWXMqnz0Oe9+Kak29R21zGIeu6YJf7fgwbTDFPruBqFxfIXgsSwAEiqFpvEVgsdtpR5p9crfooiI29iEPubdLSUlVt93l8aExxW09MT2TzZkNA3PExrI2/khAEYys/gYoezaeiXvY3P9Q2QcV9TC+lT+Ko+UY2JFkxGcUNGKpwUB47dRxJuLhEbyVnwxAEzvridD4i7lCQ/6jvWh/FUeKefVd+QSg2XUytLARDaHTGtQTCMykzfyYwCs8QlwLQ8y46OvIsesLUXf8W6UkuqeWDENihi7vgk/UNoz5QCFvbNGaCpvInhssU8EQEhcKfVIZfN81jemuMIm1lfysZ6Ue9T3ncVDw8aVtPRMPUi92VAzfNhSZqY5Xom3B4Bx9EY2z9+rDPfRJ6xv5GM9KfeLFZohalSeNTh+a+sD6Y0UGFdGka/nCk2mZ4IQAPE7hObSM5jn90moIrR9SHw5oS/QJ7x7pKQ8o+gRiyyRo1bV4XcHHmRD0OBRhWR+dY7XEDSGBwCbzngLwXHlylqM8luQrO3RB7w7pKS0ESvCGNOYDZcwHO2ZvJ+Mb68UGk5veFMAhLJzRdti/cU0Zn0L2pw3v5SUPhQ9fGFsyLjSVuUOFV9JEW8sFBpPL3hDABhHbaTeiXXKXR9ty9pY/iqPlH7FCtRgfmd5flB8BT0w6SgzWRFFDs0VGlBrcG56DQDTyHXKucH4gQk7CG2KtuXNLCWlb0W/vcASOXJlE75ghPWBUFbQ5ldn64ofA2C1rgiJLaEeKYfafrxl1Jom1pbyV3mkvFOseGPCxhS0YO7ae0INGd9eITSjFiAAAsbrJwDCRhVSr4l72vZZsDZjbSe370r5hizD5luDxpW1YjQQEFdBka9ZyfwKM6KGBI1uCwDTiNWaYnxnHRkSapSREtoocsQyuX1XyvfEQsBgHr60NCB+Oz2YwoqdGVBkTE/RFgDbhab0FIFxW5nxG5Tn+hEj80pZG8nHelK+Lctb8wYZR61vwpdWeibto7Dhq4QGdTdaBkAI++weyQfZkH83GUetu8TaRD7Wk/IvsaKPDR2zqeXBlEPUO6GaIl5fIDSqu9AiAMLe3aDM83HNoWMKW9EGvDmkpPxPljfnGSLfXmrFr/M8kHaEAseWemx9IGj0Zo8FgPGdtcpn4RqDxpUTrhnXzptBSsq/ZXkz1xIxfEVdn4Sdyt0x+N2NzKSz3MqPAbDKrQTFblEW+AwTdlHE8OVNuFZ+2VJSUh1leSM3xjhyzaUe2PaaWEfGt5aT+Q/MsG7A3QEQwo6POT6uxThydQuujV+mlJSULUW9Yc0IHlPU+gA2xIzbQeFD5wtN3B2CRrEAGOf6AAgbuV5Z08C5B8aWtrJrkY/1pKQcVdTrVkPkW4vyA2PL6N9T2dyZGTby1blCMztDWwBsI9NwZlwXgeM9kFJPfcZV4CfWS3EN/HKkpKScUdTrcy2m4XlNuKv2mLiXQkasFRraUVwZAMFjiunBpAPKnT9s5Nomds5y+66UlCsVNXTu0NCR61p6JO2jXvFVZHpjsdDYanFFAIS+W0A9E9k8n51TyKiCFnaO8rGelJQ7FTU0xxo4tqT1geSD1Ce23OlpwY8BkO8wxhFryDB+B5uaHCacS8Sbi6zsvORwX0rKE4p6LcdgGrastE/cVkIQBI7aJDS5LfAeZwIgkIWOsjiJLxK9tbSOnYt8rCclpYXMr82JCR2xuqnnhDplfSDsrWUU+YeZqlACIE59AISw1+MzlM8ZseoSPpufhpSUlJYyvzonNmTk+tYHkg5Sr/FVFP7aPIr8L2Z0GwS+iwCoINPbzOA2CHtnHfWKryEcO2hUYSv7LPmrPFJSepP51dmG8DcWWDG3//eUBgoYXUwRr+QIzQ/sBYBx+Brl35VjjSmhiNfn5+Mz+MdJSUnpUeZXZltMbyyuw5OCB5IOUAgzsqMBEDSmlB6cuF952mActrwJx+SHl5KS8gaZX5kVEzZsZUuPxD3UM2EXhb25zG4AhLD/p6wnsPeEDl/dwo4hf5VHSsqbZf7DrIygkQWtGA30jtv2w/pA4LuFPwSAcfhq6j1+pzJiCBhd1MreI7fvSkn5iiL/MNMQ/lpufp+xZYrJFfOPLqaA2AoFLPDh34xvLC7Fa/nbpKSkfEnszj8o7M2lTb3G7aR/T25Q6Bm/i0KG5Texf5OP9aSk/EGR/zVjaMjbq1qCh69tZf8tt+/6pf7t3/4/OeXDqwUXn/IAAAAASUVORK5CYII=;" vertex="1" parent="1">
          <mxGeometry x="160" y="80" width="80" height="80" as="geometry" />
        </mxCell>
        <mxCell id="Npahc8-E40TIPT4REXQP-4" value="&lt;font style=&quot;font-size: 16px;&quot;&gt;&lt;b&gt;Bicep IaC&lt;/b&gt;&lt;/font&gt;" style="text;strokeColor=none;align=center;fillColor=none;html=1;verticalAlign=middle;whiteSpace=wrap;rounded=0;" vertex="1" parent="1">
          <mxGeometry x="162.5" y="40" width="75" height="50" as="geometry" />
        </mxCell>
        <mxCell id="Npahc8-E40TIPT4REXQP-5" value="" style="image;aspect=fixed;html=1;points=[];align=center;fontSize=12;image=img/lib/azure2/app_services/App_Service_Plans.svg;" vertex="1" parent="1">
          <mxGeometry x="560" y="80" width="80" height="80" as="geometry" />
        </mxCell>
        <mxCell id="Npahc8-E40TIPT4REXQP-6" value="&lt;font style=&quot;font-size: 16px;&quot;&gt;&lt;b&gt;App Service Plan&lt;/b&gt;&lt;/font&gt;" style="text;strokeColor=none;align=center;fillColor=none;html=1;verticalAlign=middle;whiteSpace=wrap;rounded=0;" vertex="1" parent="1">
          <mxGeometry x="550" y="30" width="100" height="50" as="geometry" />
        </mxCell>
        <mxCell id="Npahc8-E40TIPT4REXQP-7" style="edgeStyle=orthogonalEdgeStyle;rounded=0;orthogonalLoop=1;jettySize=auto;html=1;entryX=-0.05;entryY=0.5;entryDx=0;entryDy=0;entryPerimeter=0;strokeWidth=2;" edge="1" parent="1" source="Npahc8-E40TIPT4REXQP-3" target="Npahc8-E40TIPT4REXQP-5">
          <mxGeometry relative="1" as="geometry" />
        </mxCell>
        <mxCell id="Npahc8-E40TIPT4REXQP-8" value="&lt;font style=&quot;font-size: 16px;&quot;&gt;&lt;b&gt;Create Deployment Slots&lt;/b&gt;&lt;/font&gt;" style="text;strokeColor=none;align=center;fillColor=none;html=1;verticalAlign=middle;whiteSpace=wrap;rounded=0;" vertex="1" parent="1">
          <mxGeometry x="360" y="64" width="90" height="50" as="geometry" />
        </mxCell>
        <mxCell id="Npahc8-E40TIPT4REXQP-10" value="" style="image;aspect=fixed;html=1;points=[];align=center;fontSize=12;image=img/lib/azure2/other/Azure_Deployment_Environments.svg;" vertex="1" parent="1">
          <mxGeometry x="560" y="280" width="83.33" height="80" as="geometry" />
        </mxCell>
        <mxCell id="Npahc8-E40TIPT4REXQP-11" value="&lt;span style=&quot;font-size: 16px;&quot;&gt;&lt;b&gt;CI / CD Pipeline&lt;/b&gt;&lt;/span&gt;" style="text;strokeColor=none;align=center;fillColor=none;html=1;verticalAlign=middle;whiteSpace=wrap;rounded=0;" vertex="1" parent="1">
          <mxGeometry x="160" y="346" width="75" height="50" as="geometry" />
        </mxCell>
        <mxCell id="Npahc8-E40TIPT4REXQP-12" value="&lt;font style=&quot;font-size: 16px;&quot;&gt;&lt;b&gt;Deployment Environment&lt;/b&gt;&lt;/font&gt;" style="text;strokeColor=none;align=center;fillColor=none;html=1;verticalAlign=middle;whiteSpace=wrap;rounded=0;" vertex="1" parent="1">
          <mxGeometry x="551.66" y="230" width="100" height="50" as="geometry" />
        </mxCell>
        <mxCell id="Npahc8-E40TIPT4REXQP-13" style="edgeStyle=orthogonalEdgeStyle;rounded=0;orthogonalLoop=1;jettySize=auto;html=1;entryX=0;entryY=0.5;entryDx=0;entryDy=0;entryPerimeter=0;strokeWidth=2;" edge="1" parent="1" source="Npahc8-E40TIPT4REXQP-1" target="Npahc8-E40TIPT4REXQP-10">
          <mxGeometry relative="1" as="geometry">
            <Array as="points">
              <mxPoint x="320" y="436" />
              <mxPoint x="320" y="320" />
            </Array>
          </mxGeometry>
        </mxCell>
        <mxCell id="Npahc8-E40TIPT4REXQP-14" value="&lt;font style=&quot;font-size: 16px;&quot;&gt;&lt;b&gt;Deploy Frontend &amp;amp; Backend&lt;/b&gt;&lt;/font&gt;" style="text;strokeColor=none;align=center;fillColor=none;html=1;verticalAlign=middle;whiteSpace=wrap;rounded=0;" vertex="1" parent="1">
          <mxGeometry x="360" y="262" width="90" height="50" as="geometry" />
        </mxCell>
        <mxCell id="Npahc8-E40TIPT4REXQP-15" value="" style="image;aspect=fixed;html=1;points=[];align=center;fontSize=12;image=img/lib/azure2/general/Load_Test.svg;" vertex="1" parent="1">
          <mxGeometry x="566" y="440" width="68" height="66" as="geometry" />
        </mxCell>
        <mxCell id="Npahc8-E40TIPT4REXQP-17" value="&lt;span style=&quot;font-size: 16px;&quot;&gt;&lt;b&gt;Tests&lt;/b&gt;&lt;/span&gt;" style="text;strokeColor=none;align=center;fillColor=none;html=1;verticalAlign=middle;whiteSpace=wrap;rounded=0;" vertex="1" parent="1">
          <mxGeometry x="550" y="398" width="100" height="50" as="geometry" />
        </mxCell>
        <mxCell id="Npahc8-E40TIPT4REXQP-20" value="" style="sketch=0;points=[[0,0,0],[0.25,0,0],[0.5,0,0],[0.75,0,0],[1,0,0],[0,1,0],[0.25,1,0],[0.5,1,0],[0.75,1,0],[1,1,0],[0,0.25,0],[0,0.5,0],[0,0.75,0],[1,0.25,0],[1,0.5,0],[1,0.75,0]];points=[[0,0,0],[0.25,0,0],[0.5,0,0],[0.75,0,0],[1,0,0],[0,1,0],[0.25,1,0],[0.5,1,0],[0.75,1,0],[1,1,0],[0,0.25,0],[0,0.5,0],[0,0.75,0],[1,0.25,0],[1,0.5,0],[1,0.75,0]];outlineConnect=0;fontColor=#232F3E;fillColor=#E7157B;strokeColor=#ffffff;dashed=0;verticalLabelPosition=bottom;verticalAlign=top;align=center;html=1;fontSize=12;fontStyle=0;aspect=fixed;shape=mxgraph.aws4.resourceIcon;resIcon=mxgraph.aws4.command_line_interface;" vertex="1" parent="1">
          <mxGeometry x="560" y="600" width="78" height="78" as="geometry" />
        </mxCell>
        <mxCell id="Npahc8-E40TIPT4REXQP-21" value="&lt;span style=&quot;font-size: 16px;&quot;&gt;&lt;b&gt;Swap Prod &amp;amp; Staging&lt;/b&gt;&lt;/span&gt;" style="text;strokeColor=none;align=center;fillColor=none;html=1;verticalAlign=middle;whiteSpace=wrap;rounded=0;" vertex="1" parent="1">
          <mxGeometry x="551.67" y="550" width="100" height="50" as="geometry" />
        </mxCell>
        <mxCell id="Npahc8-E40TIPT4REXQP-22" style="edgeStyle=orthogonalEdgeStyle;rounded=0;orthogonalLoop=1;jettySize=auto;html=1;exitX=0.5;exitY=1;exitDx=0;exitDy=0;" edge="1" parent="1" source="Npahc8-E40TIPT4REXQP-21" target="Npahc8-E40TIPT4REXQP-21">
          <mxGeometry relative="1" as="geometry" />
        </mxCell>
        <mxCell id="Npahc8-E40TIPT4REXQP-23" style="edgeStyle=orthogonalEdgeStyle;rounded=0;orthogonalLoop=1;jettySize=auto;html=1;entryX=0;entryY=0.5;entryDx=0;entryDy=0;entryPerimeter=0;strokeWidth=2;" edge="1" parent="1" source="Npahc8-E40TIPT4REXQP-1" target="Npahc8-E40TIPT4REXQP-20">
          <mxGeometry relative="1" as="geometry">
            <Array as="points">
              <mxPoint x="320" y="436" />
              <mxPoint x="320" y="639" />
            </Array>
          </mxGeometry>
        </mxCell>
      </root>
    </mxGraphModel>
  </diagram>
</mxfile>
